<?xml version="1.0" encoding="UTF-8" standalone="no"?>
<!-- Created with Inkscape (http://www.inkscape.org/) -->

<svg
   width="300.26593"
   height="95.353813"
   viewBox="0 0 300.26594 95.353813"
   version="1.1"
   id="svg1"
   xml:space="preserve"
   inkscape:version="1.4 (86a8ad7, 2024-10-11)"
   sodipodi:docname="DetailTrip-05-29-2025.svg"
   xmlns:inkscape="http://www.inkscape.org/namespaces/inkscape"
   xmlns:sodipodi="http://sodipodi.sourceforge.net/DTD/sodipodi-0.dtd"
   xmlns="http://www.w3.org/2000/svg"
   xmlns:svg="http://www.w3.org/2000/svg"><sodipodi:namedview
     id="namedview1"
     pagecolor="#ffffff"
     bordercolor="#000000"
     borderopacity="0.25"
     inkscape:showpageshadow="true"
     inkscape:pageopacity="0.0"
     inkscape:pagecheckerboard="true"
     inkscape:deskcolor="#d1d1d1"
     inkscape:document-units="mm"
     inkscape:zoom="2"
     inkscape:cx="170.75"
     inkscape:cy="44.75"
     inkscape:window-width="1147"
     inkscape:window-height="1211"
     inkscape:window-x="35"
     inkscape:window-y="63"
     inkscape:window-maximized="0"
     inkscape:current-layer="layer1"
     borderlayer="true"
     showborder="true" /><defs
     id="defs1" /><g
     inkscape:label="Layer 1"
     inkscape:groupmode="layer"
     id="layer1"
     transform="translate(45.341969,-91.265903)"><g
       id="g1"
       transform="matrix(2.9287484,0,0,2.9287484,-123.7809,-433.48603)"><path
         style="fill:#000000"
         d="m 44.96934,211.55461 c -0.182694,-0.0968 -0.720821,-0.42458 -1.195838,-0.72839 -1.498084,-0.95813 -3.73517,-1.99935 -5.50559,-2.5625 -1.25296,-0.39855 -1.06764,-0.61966 0.951147,-1.13485 3.527605,-0.90024 9.958761,-2.12562 15.350284,-2.92481 11.858084,-1.75774 20.794693,-2.49017 35.986133,-2.94939 4.88194,-0.14757 23.362874,-0.17047 23.504234,-0.0291 0.0678,0.0678 0.0667,0.21839 -0.004,0.47981 -0.18459,0.68613 0.58944,0.58718 -7.1389,0.9126 -17.142344,0.72181 -28.541794,1.73301 -39.440809,3.49864 -7.769821,1.2587 -16.037658,3.28939 -20.739674,5.09393 -0.745328,0.28604 -1.373152,0.52008 -1.395164,0.52008 -0.02201,0 -0.189499,-0.0792 -0.372193,-0.176 z m -14.270801,-9.04435 c -0.06597,-0.0695 -0.119954,-0.20267 -0.119954,-0.29584 0,-0.0932 0.436069,-1.36923 0.969042,-2.8357 0.532973,-1.46648 2.060439,-5.73234 3.394371,-9.4797 1.333931,-3.74736 2.45585,-6.88573 2.493153,-6.97416 0.06273,-0.14873 0.02783,-0.15035 -0.465186,-0.0216 -0.784143,0.20477 -2.220669,0.81142 -2.986317,1.26113 -1.037611,0.60944 -1.562864,1.01432 -2.428827,1.8722 -1.52049,1.5063 -2.178934,2.81328 -2.372707,4.70973 -0.07583,0.74216 -0.158063,0.81825 -0.70666,0.65389 -1.204321,-0.36083 -1.893093,-1.54623 -1.641494,-2.82509 0.583774,-2.96726 3.346158,-5.60898 7.597783,-7.26589 3.960824,-1.54358 8.559505,-1.91098 11.481144,-0.91727 2.505087,0.85204 4.154685,2.50164 4.728338,4.72835 0.244456,0.94888 0.263892,3.02312 0.04028,4.29891 -0.310424,1.77109 -1.228154,4.00127 -2.314295,5.62398 -2.715403,4.05685 -7.128017,6.69619 -12.257243,7.33151 -1.699889,0.21055 -5.255796,0.29963 -5.411431,0.13556 z m 6.549477,-2.54661 c 4.353301,-1.0524 8.066841,-5.22857 9.12034,-10.25656 0.217326,-1.03722 0.293749,-3.26341 0.14276,-4.15857 -0.36395,-2.15774 -1.940557,-3.47049 -4.168058,-3.47049 h -0.492599 l -0.606073,1.84729 c -0.860755,2.62355 -5.292096,15.98672 -5.360091,16.16392 -0.04787,0.12475 0.0086,0.1372 0.36566,0.0806 0.232256,-0.0368 0.681383,-0.12962 0.998061,-0.20617 z m 78.228914,2.32961 c -0.0332,-0.0866 0.17088,-0.90267 0.45355,-1.81354 0.67017,-2.15949 1.20676,-3.96068 1.20676,-4.05075 0,-0.0394 -0.2411,0.14865 -0.53579,0.41798 -0.29468,0.26933 -0.86686,0.65151 -1.27151,0.84931 -0.69396,0.33921 -0.78784,0.35962 -1.65401,0.35962 -0.83357,0 -0.95393,-0.0236 -1.3045,-0.25534 -0.55154,-0.36465 -0.75216,-0.82801 -0.74121,-1.7119 0.008,-0.62986 0.15509,-1.20502 1.1795,-4.60623 0.64381,-2.13758 1.27602,-4.23723 1.4049,-4.66589 0.12888,-0.42867 0.28988,-0.8255 0.35779,-0.88186 0.0679,-0.0564 0.77965,-0.13302 1.58165,-0.17037 1.26114,-0.0587 1.46579,-0.0481 1.51443,0.0787 0.0309,0.0806 -0.46873,1.95466 -1.11037,4.16452 -1.39997,4.82163 -1.48373,5.17847 -1.28623,5.4799 0.27223,0.41548 0.94955,0.21655 1.76792,-0.51923 0.25894,-0.23281 0.55461,-0.56175 0.65706,-0.73099 0.14534,-0.2401 1.891,-5.95513 2.43895,-7.98474 0.057,-0.21112 0.15108,-0.43683 0.20908,-0.50158 0.0696,-0.0777 0.61805,-0.13982 1.61302,-0.18272 1.66001,-0.0716 1.71993,-0.0522 1.51412,0.48913 -0.1419,0.37321 -0.0603,0.40584 0.28615,0.11435 0.76481,-0.64354 2.4826,-1.18837 3.34805,-1.06189 0.60723,0.0887 1.21031,0.38578 1.51257,0.74499 0.48293,0.57394 0.63388,1.0773 0.68041,2.26899 0.0478,1.22524 -0.1553,2.48883 -0.61708,3.83853 -0.88714,2.59287 -2.8883,4.90773 -4.89431,5.66152 -1.10612,0.41564 -2.33037,0.21821 -3.06705,-0.49462 l -0.30297,-0.29316 -0.24412,0.80188 c -0.13427,0.44103 -0.48746,1.64395 -0.78486,2.67316 -0.2974,1.0292 -0.57024,1.90234 -0.60632,1.94031 -0.0361,0.038 -0.78099,0.0984 -1.65538,0.13418 -1.42252,0.0583 -1.59615,0.0486 -1.6502,-0.0922 z m 7.2191,-6.58487 c 0.91845,-0.46856 2.00478,-2.22713 2.58089,-4.178 0.72056,-2.43999 0.63245,-3.86057 -0.25522,-4.11515 -0.55553,-0.15932 -1.50789,0.35808 -2.04341,1.11015 -0.23991,0.33692 -1.91597,5.91321 -1.9371,6.44479 -0.0121,0.30483 0.0396,0.41744 0.29734,0.64775 0.37635,0.33627 0.81798,0.3657 1.3575,0.0905 z m -71.158679,4.73066 c -0.711871,-0.21018 -1.374012,-0.74987 -1.698531,-1.38441 -1.142088,-2.23318 0.654571,-7.25204 3.387041,-9.4615 2.139223,-1.72976 4.881294,-1.97144 5.900848,-0.52008 0.2776,0.39516 0.288767,0.45091 0.288767,1.44154 0,1.01667 -0.0054,1.04132 -0.401049,1.83882 -0.956533,1.92796 -2.851527,3.14017 -5.90852,3.77963 -0.243325,0.0509 -0.263734,0.0906 -0.261791,0.5092 0.0012,0.2497 0.08607,0.63898 0.188685,0.86508 0.439335,0.96798 1.979411,1.05459 3.661046,0.20589 1.289934,-0.65101 2.971176,-2.35261 3.282317,-3.32206 0.0815,-0.25393 0.415392,-1.32536 0.741983,-2.38095 0.326592,-1.0556 0.614346,-1.97324 0.639454,-2.03922 0.03312,-0.087 -0.100457,-0.11995 -0.486749,-0.11995 -0.29282,0 -0.556744,-0.0394 -0.586499,-0.0875 -0.05254,-0.085 0.156765,-1.2298 0.286662,-1.56783 0.04978,-0.12954 0.177376,-0.16824 0.558072,-0.16925 0.840791,-0.002 0.858926,-0.0171 1.085272,-0.89185 0.447759,-1.73035 0.615178,-2.17644 0.833239,-2.22015 0.11352,-0.0228 0.80222,-0.0639 1.530444,-0.0914 1.091347,-0.0412 1.333279,-0.0259 1.376586,0.0869 0.0289,0.0753 -0.137788,0.77523 -0.370412,1.55538 l -0.422953,1.41847 1.046162,0.0272 1.046162,0.0272 -0.0679,0.50059 c -0.03735,0.27532 -0.116826,0.65172 -0.17662,0.83645 l -0.108714,0.33587 -1.127821,0.0564 c -0.620302,0.031 -1.149739,0.0783 -1.176527,0.10506 -0.0407,0.0407 -0.994264,3.35372 -1.764427,6.13028 -0.254364,0.91702 -0.26353,1.53922 -0.02584,1.75432 0.553391,0.50081 1.93451,-0.17917 2.896481,-1.42607 0.327597,-0.42462 0.433247,-0.67108 0.583883,-1.36204 0.387583,-1.77783 1.010154,-3.18998 1.980587,-4.49247 2.172116,-2.91535 5.361603,-3.85486 6.554447,-1.9307 l 0.16997,0.27419 0.12068,-0.53922 c 0.0664,-0.29657 0.16766,-0.57673 0.2251,-0.62257 0.0574,-0.0458 0.75689,-0.11393 1.55434,-0.1513 1.17043,-0.0549 1.45911,-0.0432 1.49764,0.0605 0.0262,0.0707 -0.46479,1.87737 -1.09122,4.01495 -1.32113,4.50818 -1.44023,5.04522 -1.20015,5.41163 0.42237,0.64463 1.61664,-0.0522 2.40171,-1.40136 0.13175,-0.22641 0.75893,-2.13359 1.39374,-4.23817 0.6348,-2.10459 1.18109,-3.85352 1.21396,-3.88651 0.0329,-0.033 0.69322,-0.088 1.46744,-0.12215 1.04706,-0.0462 1.43923,-0.0323 1.53084,0.0546 0.0996,0.0944 -0.10537,0.91501 -1.07011,4.28454 -1.12197,3.9187 -1.24787,4.42878 -1.22239,4.9526 0.0141,0.29066 0.26243,0.51066 0.57635,0.51066 0.55691,0 1.73927,-1.08392 2.17321,-1.99228 0.16685,-0.34926 1.0073,-3.086 2.79195,-9.09145 0.74814,-2.5175 1.25772,-4.0764 1.35753,-4.15285 0.11659,-0.0893 0.53657,-0.11525 1.55356,-0.096 l 1.39378,0.0264 -0.0119,0.28789 c -0.007,0.15834 -0.86408,3.23942 -1.90568,6.84685 -1.04159,3.60743 -1.91628,6.72651 -1.94375,6.9313 -0.0726,0.54161 0.15788,0.85621 0.62739,0.85621 0.19816,0 0.46706,-0.0712 0.59755,-0.15812 0.38656,-0.25763 1.04316,-0.91288 1.40414,-1.40128 0.34628,-0.4685 0.65891,-0.59009 0.77038,-0.29961 0.0807,0.21033 -0.50732,1.37622 -1.07247,2.1264 -1.17267,1.55662 -3.12171,2.49515 -4.44066,2.13833 -0.75927,-0.20541 -1.36621,-0.93637 -1.36621,-1.64538 v -0.30141 l -0.79998,0.75724 c -1.56172,1.4783 -3.38993,1.95768 -4.48695,1.17653 -0.33526,-0.23873 -0.66278,-0.91281 -0.66278,-1.36409 v -0.35025 l -0.64775,0.64725 c -1.7112,1.70989 -3.791568,2.16442 -4.846136,1.05881 -0.291676,-0.30579 -0.359861,-0.44924 -0.359861,-0.75709 0,-0.39973 -0.137505,-0.51052 -0.23854,-0.19219 -0.09793,0.30857 -0.986075,1.03872 -1.66723,1.37067 -0.589472,0.28726 -0.7092,0.31046 -1.596881,0.30947 -0.854289,-9.6e-4 -1.013868,-0.0294 -1.453726,-0.25937 -0.7335,-0.38345 -1.115444,-0.91092 -1.441194,-1.99031 -0.02935,-0.0972 -0.195334,0.0318 -0.526541,0.40941 -1.49509,1.70447 -3.620335,2.60214 -5.108115,2.15761 -0.605268,-0.18085 -1.165354,-0.79658 -1.309175,-1.43924 -0.06473,-0.28925 -0.09931,-0.68335 -0.07685,-0.87579 0.02247,-0.19244 0.02238,-0.34988 -1.87e-4,-0.34988 -0.02257,0 -0.343715,0.28553 -0.713658,0.63452 -0.748359,0.70596 -1.988706,1.5514 -2.807018,1.91329 -1.36473,0.60355 -2.941544,0.78283 -4.037969,0.45912 z m 19.674062,-3.04559 c 0.397674,-0.16616 1.045113,-0.74142 1.289966,-1.14616 0.100686,-0.16644 0.560393,-1.57072 1.021571,-3.12063 0.780035,-2.62151 0.83079,-2.84377 0.727866,-3.1873 -0.138372,-0.46184 -0.419567,-0.66411 -0.923265,-0.66411 -1.603014,0 -3.666796,3.59461 -3.71895,6.4775 -0.01187,0.6559 0.02399,0.9373 0.149053,1.16973 0.316057,0.58739 0.799941,0.74415 1.453759,0.47097 z m -17.066485,-3.03027 c 1.029624,-0.49837 1.81825,-1.27206 2.30923,-2.26549 0.457422,-0.92553 0.540885,-1.64426 0.227349,-1.9578 -0.25059,-0.25058 -0.620263,-0.21569 -1.064269,0.10047 -0.35944,0.25595 -1.029119,1.20142 -1.457489,2.05773 -0.273449,0.54662 -0.933888,2.24864 -0.933888,2.40672 0,0.0857 0.15627,0.0276 0.919067,-0.34163 z m 39.958218,4.41058 c -0.0834,-0.0516 0.25468,-1.26377 1.23425,-4.42491 0.74204,-2.39463 1.87026,-6.03803 2.50716,-8.09643 0.6369,-2.05841 1.18361,-3.82327 1.2149,-3.92191 0.0541,-0.17049 -0.006,-0.17716 -1.22469,-0.1352 -1.02109,0.0352 -1.39329,0.0875 -1.83107,0.25734 -0.97295,0.37753 -1.41356,1.14021 -1.57146,2.72018 l -0.0647,0.64775 h -0.79855 c -0.73999,0 -0.81579,-0.0186 -1.0337,-0.2536 -0.53914,-0.58144 -0.58776,-1.9378 -0.10615,-2.96116 0.366,-0.77769 1.3365,-1.73548 2.15683,-2.12859 1.12983,-0.54142 2.28051,-0.69375 6.765394,-0.89558 1.21394,-0.0546 2.96286,-0.16705 3.88651,-0.24982 2.32935,-0.20874 2.40184,-0.20926 2.52585,-0.018 0.15148,0.23359 -0.25527,1.85892 -0.60206,2.40575 -0.43699,0.68906 -0.67947,0.74341 -2.82882,0.63409 -0.99318,-0.0505 -1.82527,-0.0724 -1.84909,-0.0485 -0.0238,0.0238 -1.07617,3.66203 -2.33854,8.08491 -1.262384,4.42287 -2.355444,8.10179 -2.429034,8.17538 -0.0922,0.0922 -0.45773,0.14627 -1.17618,0.17393 -0.57331,0.0221 -1.33027,0.0548 -1.68213,0.0728 -0.35187,0.018 -0.69147,7e-4 -0.75468,-0.0384 z m 6.696274,-0.2462 c -0.0395,-0.0395 -0.0718,-0.14923 -0.0718,-0.24381 0,-0.0946 0.69373,-2.53804 1.54164,-5.42991 0.8479,-2.89187 1.62684,-5.54879 1.73097,-5.90426 0.10691,-0.36498 0.26085,-0.683 0.35363,-0.73057 0.0904,-0.0463 0.82091,-0.11137 1.62344,-0.14452 1.76699,-0.073 1.73168,-0.0987 1.4055,1.02326 -0.12412,0.4269 -0.22566,0.78432 -0.22566,0.79426 0,0.01 0.31308,-0.29482 0.69573,-0.67726 0.38265,-0.38245 0.91165,-0.80436 1.17555,-0.93758 1.03585,-0.52292 2.35073,-0.57596 3.0369,-0.12249 0.51046,0.33735 0.69338,0.88355 0.63953,1.90956 -0.076,1.44789 -0.78509,2.51593 -1.82158,2.74366 -0.90537,0.19892 -1.45463,0.22351 -1.65296,0.074 -0.17631,-0.13291 -0.17682,-0.15808 -0.0165,-0.81233 0.091,-0.37134 0.15129,-0.79914 0.13397,-0.95066 -0.0302,-0.26437 -0.05,-0.27455 -0.48951,-0.25201 -0.92063,0.0472 -1.92107,0.81933 -2.42246,1.86961 -0.13286,0.27829 -0.67388,1.96774 -1.20229,3.75433 -0.52841,1.7866 -1.02032,3.39098 -1.09315,3.56528 l -0.13242,0.31691 -0.84848,0.0601 c -0.46666,0.033 -1.1724,0.084 -1.56832,0.11318 -0.39591,0.0292 -0.75218,0.0208 -0.79169,-0.0187 z M 82.323596,186.04485 c -0.9321,-0.45942 -1.0447,-1.74306 -0.23182,-2.64283 1.23492,-1.3669 3.33557,-0.93002 3.31116,0.68862 -0.008,0.50922 -0.2706,1.08365 -0.66842,1.4604 -0.63236,0.59885 -1.73824,0.82536 -2.41092,0.49381 z m 33.806034,-1.4447 c -0.2994,-0.0727 -0.80118,-0.48838 -0.95973,-0.79498 -0.20202,-0.39066 -0.18258,-1.17981 0.0397,-1.61101 0.75209,-1.4591 2.83867,-1.85114 3.55956,-0.66879 0.24323,0.39892 0.24819,1.13811 0.0112,1.65995 -0.4299,0.94641 -1.72759,1.63907 -2.65065,1.41483 z"
         id="path1"
         sodipodi:nodetypes="csssssscssssccssssssssssssssssssssssscsssssssssssccsssssssssssssssssssscssscsssssssssscsssscsssssssssscscssscccsscsssssssscsscssssssscsssssssccscscssssscssscsssssssscssssssccsssssssssssssssssssccscssssssssscsssssssssscsssssssssssssssccssssscsssscscss" /></g></g></svg>
